<?xml version="1.0" encoding="UTF-8"?>
<svg id="Layer_2" data-name="Layer 2" xmlns="http://www.w3.org/2000/svg" viewBox="0 0 121 121">
  <g id="Layer_6" data-name="Layer 6">
    <g>
      <g>
        <path d="m46,16c2.61,0,9,6.83,9,19.5s-6.39,19.5-9,19.5-9-6.83-9-19.5,6.39-19.5,9-19.5M46,0C32.19,0,21,15.89,21,35.5s11.19,35.5,25,35.5,25-15.89,25-35.5S59.81,0,46,0h0Z"/>
        <path d="m96,16c2.61,0,9,6.83,9,19.5s-6.39,19.5-9,19.5-9-6.83-9-19.5,6.39-19.5,9-19.5M96,0C82.19,0,71,15.89,71,35.5s11.19,35.5,25,35.5,25-15.89,25-35.5S109.81,0,96,0h0Z"/>
      </g>
      <g>
        <path d="m10.5,8c1.36,0,2.5,1.14,2.5,2.5v100c0,1.36-1.14,2.5-2.5,2.5s-2.5-1.14-2.5-2.5V10.5c0-1.36,1.14-2.5,2.5-2.5M10.5,0C4.72,0,0,4.73,0,10.5v100C0,116.27,4.72,121,10.5,121s10.5-4.73,10.5-10.5V10.5C21,4.73,16.28,0,10.5,0h0Z"/>
        <rect x="0" y="0" width="21" height="71" rx="10.5" ry="10.5"/>
      </g>
    </g>
  </g>
</svg>