<?xml version="1.0" encoding="UTF-8"?>
<svg id="Layer_2" data-name="Layer 2" xmlns="http://www.w3.org/2000/svg" viewBox="0 0 142 100">
  <g id="Icon_2" data-name="Icon 2">
    <g id="Icon_2-2" data-name="Icon 2">
      <g>
        <path d="m110.52,23H31.48c-2.38,3.25-5.24,6.11-8.48,8.48v37.03c3.25,2.38,6.11,5.24,8.48,8.48h79.03c2.38-3.25,5.24-6.11,8.48-8.48V31.48c-3.25-2.38-6.11-5.24-8.48-8.48Z"/>
        <path d="m126,0H16c0,8.84-7.16,16-16,16v68c8.84,0,16,7.16,16,16h110c0-8.84,7.16-16,16-16V16c-8.84,0-16-7.16-16-16Zm1,72.88c-5.09,2.82-9.3,7.04-12.12,12.12H27.12c-2.82-5.09-7.04-9.3-12.12-12.12V27.12c5.09-2.82,9.3-7.04,12.12-12.12h87.75c2.82,5.09,7.04,9.3,12.12,12.12v45.75Z"/>
      </g>
    </g>
  </g>
</svg>