<svg width="0" height="0" class="hidden">
  <symbol id="clapboard" xmlns="http://www.w3.org/2000/svg" viewBox="0 0 142 120.55">
    <g id="Icon_1">
      <g>
        <polygon points="75 8.99 75 44.7 92 41.11 92 6.59 75 8.99"></polygon>
        <polygon points="100 5.46 100 39.42 117 35.83 117 3.07 100 5.46"></polygon>
        <path d="m125,1.94v32.2l17-3.59V3c0-1.82-1.61-3.22-3.42-2.97l-13.58,1.91Z"></path>
        <path d="m52.07,49.55l14.93-3.15V10.11l-17,2.39v37.54h-8V13.63l-17,2.39v34.02h-8V17.15l-14.42,2.03c-1.48.21-2.58,1.48-2.58,2.97v95.39c0,1.66,1.34,3,3,3h136c1.66,0,3-1.34,3-3V52.55c0-1.66-1.34-3-3-3H52.07Zm69.93,52.5H18.17c-2.09,0-3.95-1.53-4.15-3.61-.23-2.39,1.64-4.39,3.98-4.39h103.83c2.09,0,3.95,1.53,4.15,3.61.23,2.39-1.64,4.39-3.98,4.39Zm0-26H18.17c-2.09,0-3.95-1.53-4.15-3.61-.23-2.39,1.64-4.39,3.98-4.39h103.83c2.09,0,3.95,1.53,4.15,3.61.23,2.39-1.64,4.39-3.98,4.39Z"></path>
      </g>
    </g>
  </symbol>
</svg>